External Loads File
version=1
nRows=62
nColumns=13
Range=5.000000e-03-10 seconds
endheader
time 	forceRightX 	forceRightY 	forceRightZ 	pointRightX 	pointRightY 	pointRightZ 	forceLeftX 	forceLeftY 	forceLeftZ 	pointLeftX 	pointLeftY 	pointLeftZ 		
7.505000 -28.263962 9.943447 -0.000000 0.188132 0.442920 -0.114354 53.830847 1156.206902 -0.000000 0.394293 0.212382 -0.359486
7.510000 -28.445550 12.778879 -0.000000 0.194991 0.451559 -0.114684 78.289408 1186.533067 -0.000000 0.387637 0.204530 -0.359360
7.515000 -29.457103 16.455884 -0.000000 0.202889 0.459791 -0.114883 105.690371 1211.493903 -0.000000 0.380567 0.197250 -0.359295
7.520000 -31.118888 21.274840 -0.000000 0.210388 0.467540 -0.115511 131.131028 1230.546721 -0.000000 0.373240 0.190350 -0.359173
7.525000 -33.125959 27.627690 -0.000000 0.218456 0.474646 -0.115772 156.924394 1242.657412 -0.000000 0.365563 0.183991 -0.359169
7.530000 -35.292888 35.585189 -0.000000 0.225986 0.481082 -0.116439 179.019081 1247.571097 -0.000000 0.357673 0.177905 -0.359106
7.535000 -37.286587 45.211709 -0.000000 0.234146 0.487138 -0.117125 200.658240 1244.262279 -0.000000 0.349513 0.172755 -0.358935
7.540000 -38.874777 56.257649 -0.000000 0.242933 0.492408 -0.117452 221.415543 1232.337085 -0.000000 0.341138 0.168186 -0.358787
7.545000 -39.970800 68.207491 -0.000000 0.251881 0.497065 -0.117747 239.884409 1211.890166 -0.000000 0.332469 0.164260 -0.358792
7.550000 -40.614275 80.380348 -0.000000 0.261101 0.501059 -0.118010 255.443294 1183.242242 -0.000000 0.323727 0.160946 -0.358676
7.555000 -41.053369 92.029406 -0.000000 0.270234 0.504316 -0.118190 266.871153 1147.150370 -0.000000 0.314864 0.158257 -0.358411
7.560000 -41.465898 102.622858 -0.000000 0.279501 0.507050 -0.118297 275.362924 1104.015663 -0.000000 0.305780 0.156120 -0.358379
7.565000 -42.144393 111.820073 -0.000000 0.288914 0.509160 -0.118595 280.566955 1054.670838 -0.000000 0.296588 0.154725 -0.358347
7.570000 -43.163361 119.582510 -0.000000 0.298319 0.510407 -0.118669 283.536980 999.623663 -0.000000 0.286861 0.153942 -0.356635
7.575000 -44.942528 125.854656 -0.000000 0.307729 0.511178 -0.118819 281.432326 940.483565 -0.000000 0.277682 0.153910 -0.356489
7.580000 -47.216143 130.851626 -0.000000 0.317141 0.511234 -0.119005 276.404143 877.479358 -0.000000 0.268463 0.154524 -0.356553
7.585000 -50.026427 134.704344 -0.000000 0.326230 0.510674 -0.119193 267.783010 811.690412 -0.000000 0.259327 0.155872 -0.356501
7.590000 -53.116998 137.721106 -0.000000 0.335348 0.509297 -0.119470 257.037397 743.600372 -0.000000 0.250201 0.157864 -0.356519
7.595000 -56.625459 140.129092 -0.000000 0.344116 0.507291 -0.119502 243.413485 674.547778 -0.000000 0.241259 0.160595 -0.356408
7.600000 -60.395467 142.309857 -0.000000 0.352627 0.504591 -0.119470 227.902920 605.416418 -0.000000 0.232506 0.164407 -0.356300
7.605000 -64.543054 144.587045 -0.000000 0.360682 0.501170 -0.119562 210.451359 537.575380 -0.000000 0.223896 0.168553 -0.356098
7.610000 -69.005504 147.450060 -0.000000 0.368673 0.496995 -0.119221 192.122951 472.033708 -0.000000 0.215606 0.173326 -0.355886
7.615000 -73.914983 151.393330 -0.000000 0.376532 0.492158 -0.118948 173.294357 410.019484 -0.000000 0.207632 0.178667 -0.355579
7.620000 -79.361871 156.942892 -0.000000 0.384159 0.486454 -0.118841 154.400699 352.583776 -0.000000 0.200007 0.184387 -0.355257
7.625000 -85.526691 164.498480 -0.000000 0.391124 0.480252 -0.118725 135.616011 300.663438 -0.000000 0.192652 0.190626 -0.355120
7.630000 -92.315613 174.476118 -0.000000 0.397570 0.473335 -0.118304 117.667156 254.680182 -0.000000 0.185725 0.197396 -0.354977
7.635000 -99.660121 187.138198 -0.000000 0.403566 0.465916 -0.117855 101.003066 214.873018 -0.000000 0.179198 0.204713 -0.354717
7.640000 -107.561719 202.540145 -0.000000 0.409026 0.457978 -0.117578 85.837474 181.297810 -0.000000 0.173106 0.212340 -0.354619
7.645000 -115.553073 220.822112 -0.000000 0.414118 0.449299 -0.117220 72.663987 153.622428 -0.000000 0.167348 0.220434 -0.354573
7.650000 -123.795997 241.658913 -0.000000 0.418647 0.440188 -0.116809 61.313239 131.618361 -0.000000 0.162216 0.228847 -0.354539
7.655000 -131.963717 264.878181 -0.000000 0.422775 0.430841 -0.116635 51.959738 114.731253 -0.000000 0.157416 0.237543 -0.354537
7.660000 -139.807827 290.205815 -0.000000 0.426487 0.421168 -0.116428 44.627477 102.358634 -0.000000 0.153172 0.246546 -0.354448
7.665000 -147.027904 317.403153 -0.000000 0.429769 0.411255 -0.116641 39.300529 93.831585 -0.000000 0.149379 0.255818 -0.354326
7.670000 -153.487307 346.195624 -0.000000 0.432428 0.401133 -0.116883 35.857962 88.463143 -0.000000 0.146209 0.265335 -0.354340
7.675000 -158.790365 376.456688 -0.000000 0.434561 0.390840 -0.116946 34.192230 85.518809 -0.000000 0.143549 0.275040 -0.354778
7.680000 -162.482935 408.088509 -0.000000 0.436129 0.380300 -0.117023 34.127646 84.273232 -0.000000 0.141366 0.284901 -0.354851
7.685000 -163.979864 441.017032 -0.000000 0.437154 0.369505 -0.117025 35.453183 84.000041 -0.000000 0.139779 0.295034 -0.354869
7.690000 -163.314428 474.886131 -0.000000 0.437673 0.358716 -0.117036 37.816189 84.024237 -0.000000 0.138794 0.305330 -0.355031
7.695000 -159.954001 509.495195 -0.000000 0.437688 0.347742 -0.116764 40.969598 83.658935 -0.000000 0.138414 0.315691 -0.355271
7.700000 -153.627312 544.452950 -0.000000 0.437488 0.336636 -0.116719 44.594615 82.329803 -0.000000 0.138584 0.326089 -0.355605
7.705000 -144.372982 579.179437 -0.000000 0.436572 0.325659 -0.116415 48.307671 79.628325 -0.000000 0.139401 0.336648 -0.356603
7.710000 -131.303764 613.206313 -0.000000 0.435117 0.314696 -0.116598 51.855501 75.244432 -0.000000 0.140622 0.347565 -0.355733
7.715000 -116.328173 645.348786 -0.000000 0.433148 0.303741 -0.116416 54.676462 69.280621 -0.000000 0.142717 0.357807 -0.357008
7.720000 -97.965387 675.121832 -0.000000 0.430701 0.292972 -0.116187 56.697824 61.701802 -0.000000 0.145125 0.368391 -0.356343
7.725000 -77.369370 701.516531 -0.000000 0.427750 0.282383 -0.116061 57.605557 52.825547 -0.000000 0.148211 0.378803 -0.357217
7.730000 -55.058134 723.721459 -0.000000 0.424430 0.272110 -0.115899 57.243247 43.023319 -0.000000 0.151739 0.389252 -0.356466
7.735000 -32.411898 740.999527 -0.000000 0.420631 0.262163 -0.115784 55.506582 32.794247 -0.000000 0.155890 0.399245 -0.356578
7.740000 -9.470918 752.944593 -0.000000 0.416382 0.252617 -0.115763 52.477676 22.556126 -0.000000 0.160482 0.409206 -0.356605
7.745000 12.512537 759.402469 -0.000000 0.411751 0.243467 -0.115679 48.285950 12.829541 -0.000000 0.165770 0.418720 -0.357444
7.750000 32.665611 760.614234 -0.000000 0.406786 0.234683 -0.115771 43.199679 4.100314 -0.000000 0.171258 0.428038 -0.356957
7.755000 50.824286 757.116736 -0.000000 0.401338 0.226321 -0.115654 37.587383 -3.221156 -0.000000 0.177354 0.436926 -0.357555
7.760000 65.953183 749.768922 -0.000000 0.395472 0.218346 -0.115556 31.855019 -8.784690 -0.000000 0.183715 0.445335 -0.357000
7.765000 77.970640 739.621427 -0.000000 0.389205 0.210937 -0.115720 26.381451 -12.473062 -0.000000 0.190495 0.453320 -0.357042
7.770000 87.248343 727.838190 -0.000000 0.382595 0.203676 -0.115487 21.466050 -14.383771 -0.000000 0.197615 0.460889 -0.357114
7.775000 94.281001 715.634582 -0.000000 0.375518 0.197092 -0.114666 17.321287 -14.801428 -0.000000 0.205698 0.467604 -0.358564
7.780000 98.792384 704.258963 -0.000000 0.368089 0.191021 -0.114489 14.074504 -14.134276 -0.000000 0.213669 0.474432 -0.358879
7.785000 101.760277 694.542231 -0.000000 0.360429 0.185464 -0.114426 11.713719 -12.872752 -0.000000 0.222262 0.480522 -0.358323
7.790000 102.469793 687.224314 -0.000000 0.352259 0.180444 -0.114463 10.155038 -11.427204 -0.000000 0.230335 0.486042 -0.358288
7.795000 103.119920 682.328141 -0.000000 0.343791 0.175852 -0.114460 9.179991 -10.129559 -0.000000 0.238860 0.491098 -0.358247
7.800000 103.311738 680.027887 -0.000000 0.334864 0.171974 -0.114166 8.561082 -9.107385 -0.000000 0.247388 0.495577 -0.358138
7.805000 102.273193 680.365785 -0.000000 0.325718 0.168653 -0.114065 8.049525 -8.346102 -0.000000 0.255511 0.499437 -0.358295
7.810000 102.203984 682.792110 -0.000000 0.316296 0.165897 -0.114012 7.357033 -7.791390 -0.000000 0.264053 0.502660 -0.359280
